<svg xmlns="http://www.w3.org/2000/svg" height="24" viewBox="0 96 960 960" width="24"><path d="M324 218V97h312v121H324Zm96 479h120V445H420v252Zm60 359q-84 0-157.513-31.6-73.512-31.592-128.507-85.916-54.994-54.323-86.487-127.904Q76 737 76 653q0-84 31.584-157.535t86.465-127.916q54.881-54.381 128.416-86.465T480 249q65.409 0 126.205 19.5Q667 288 719 327l72-72 86 87-72 72q41 53 60 113.5T884 653q0 84-31.706 157.506t-86.413 128.117q-54.707 54.61-128.294 85.997Q564 1056 480 1056Zm0-136q112 0 190-77.5T748 653q0-111-78-189.5T480 385q-112 0-190 78.5T212 653q0 112 78 189.5T480 920Zm0-267Z"/></svg>